<svg width="10" height="21" viewBox="0 0 10 21" fill="none" xmlns="http://www.w3.org/2000/svg">
<g id="Group">
<path id="Facebook" d="M2.22543 4.01799C2.22543 4.52293 2.22543 6.7767 2.22543 6.7767H0.253662V10.1501H2.22543V20.1745H6.27585V10.1503H8.99388C8.99388 10.1503 9.24843 8.53284 9.37183 6.76426C9.01806 6.76426 6.29117 6.76426 6.29117 6.76426C6.29117 6.76426 6.29117 4.80174 6.29117 4.45776C6.29117 4.11302 6.73279 3.64931 7.16927 3.64931C7.60494 3.64931 8.52444 3.64931 9.3761 3.64931C9.3761 3.19002 9.3761 1.60308 9.3761 0.137451C8.23917 0.137451 6.94571 0.137451 6.37557 0.137451C2.12531 0.137218 2.22543 3.51393 2.22543 4.01799Z" fill="white"/>
</g>
</svg>
