<svg width="21" height="19" viewBox="0 0 21 19" fill="none" xmlns="http://www.w3.org/2000/svg">
<path d="M19.2727 2.07831C18.2254 1.03104 16.839 0.458643 15.3592 0.458643C13.8795 0.458643 12.4888 1.03528 11.4415 2.08255L10.8945 2.62951L10.3391 2.07407C9.29183 1.0268 7.89688 0.445923 6.41713 0.445923C4.94162 0.445923 3.55091 1.02256 2.50787 2.06559C1.4606 3.11286 0.883967 4.50357 0.888207 5.98332C0.888207 7.46307 1.46908 8.84954 2.51635 9.89681L10.479 17.8595C10.5893 17.9697 10.7377 18.0291 10.8818 18.0291C11.026 18.0291 11.1744 17.974 11.2846 17.8637L19.2642 9.91377C20.3115 8.8665 20.8881 7.47579 20.8881 5.99604C20.8924 4.51629 20.32 3.12558 19.2727 2.07831Z" fill="white"/>
</svg>
