<svg width="31" height="32" viewBox="0 0 31 32" fill="none" xmlns="http://www.w3.org/2000/svg">
<g id="Meddia_icons-03">
<g id="Group">
<g id="Group_2">
<path id="Vector" d="M19.5375 8.24454C21.7027 8.24454 23.4988 9.99237 23.4988 12.1576V18.6793H26.1075V12.1576C26.1075 8.97628 23.7883 6.31411 20.7622 5.7402C20.1883 2.71411 17.504 0.418457 14.3201 0.418457H0.0205078V31.7228H18.2814V29.1141H2.6292V3.02715H14.3201C16.4853 3.02715 18.2814 4.77498 18.2814 6.9402V8.24454H19.5375ZM6.54225 12.1576H11.7596V9.54889H6.54225V12.1576ZM26.1075 25.2011V21.288H23.4988V25.2011H19.5857V27.8098H23.4988V31.7228H26.1075V27.8098H30.0205V25.2011H26.1075ZM6.54225 17.375H18.2814V14.7663H6.54225V17.375Z" fill="white"/>
</g>
</g>
</g>
</svg>
