<svg width="31" height="37" viewBox="0 0 31 37" fill="none" xmlns="http://www.w3.org/2000/svg">
<g id="Meddia_icons-04">
<g id="Group">
<g id="Group_2">
<path id="Vector" d="M10.2709 15.418H0.521484V18.4185H10.2709C10.7209 18.4185 11.0213 18.719 11.0213 19.169V36.4191H14.0219V19.169C14.0219 17.0671 12.3728 15.418 10.2709 15.418ZM20.7721 15.418C18.6702 15.418 17.0211 17.0671 17.0211 19.169V36.4191H20.0216V19.169C20.0216 18.719 20.3221 18.4185 20.7721 18.4185H30.5215V15.418H20.7721Z" fill="white"/>
<path id="Vector_2" d="M21.5214 6.41769C21.5214 3.11805 18.8227 0.417969 15.5217 0.417969C12.2207 0.417969 9.52197 3.11805 9.52197 6.41769C9.52197 9.71872 12.2207 12.4188 15.5217 12.4188C18.8227 12.4188 21.5214 9.71872 21.5214 6.41769ZM15.5217 9.41825C13.8726 9.41825 12.5211 8.06682 12.5211 6.41769C12.5211 4.76856 13.8726 3.41852 15.5217 3.41852C17.1708 3.41852 18.5222 4.76856 18.5222 6.41769C18.5222 8.06682 17.1708 9.41825 15.5217 9.41825Z" fill="white"/>
</g>
</g>
</g>
</svg>
