<svg width="49" height="49" viewBox="0 0 49 49" fill="none" xmlns="http://www.w3.org/2000/svg">
<path id="Vector" d="M24.77 0.954712C11.5154 0.954712 0.77002 11.6999 0.77002 24.9547C0.77002 38.2096 11.5154 48.9547 24.77 48.9547C38.0247 48.9547 48.77 38.2096 48.77 24.9547C48.77 11.6999 38.0247 0.954712 24.77 0.954712ZM33.065 26.2269L21.065 33.7269C20.8222 33.8785 20.5461 33.9547 20.27 33.9547C20.0199 33.9547 19.7694 33.8925 19.5427 33.7665C19.0659 33.5021 18.77 33.0003 18.77 32.4547V17.4547C18.77 16.9091 19.0659 16.4073 19.5427 16.143C20.0195 15.8771 20.6026 15.8932 21.065 16.1825L33.065 23.6825C33.5034 23.9572 33.77 24.4377 33.77 24.9547C33.77 25.4717 33.5034 25.9523 33.065 26.2269Z" fill="white"/>
</svg>
