<svg width="20" height="12" viewBox="0 0 20 12" fill="none" xmlns="http://www.w3.org/2000/svg">
<path fill-rule="evenodd" clip-rule="evenodd" d="M16.6862 7.91428C17.3203 8.54878 17.9895 9.14576 18.5581 9.84425C18.8093 10.1546 19.0471 10.475 19.229 10.8352C19.4868 11.3472 19.2533 11.9107 18.8054 11.9413L16.0209 11.94C15.3027 12.0011 14.7298 11.7048 14.2481 11.2014C13.8625 10.7989 13.5055 10.3705 13.1348 9.95445C12.9829 9.78438 12.8238 9.62436 12.6338 9.49787C12.2536 9.24496 11.9237 9.32239 11.7065 9.72877C11.4852 10.1421 11.435 10.5998 11.4133 11.0604C11.3835 11.7325 11.1853 11.9092 10.5267 11.94C9.11908 12.008 7.78322 11.7897 6.54224 11.0619C5.44816 10.4202 4.59974 9.51441 3.86129 8.48892C2.4235 6.49207 1.32245 4.29785 0.332858 2.04217C0.11011 1.53396 0.27301 1.26116 0.820053 1.2515C1.72844 1.23341 2.63671 1.2347 3.54616 1.25021C3.91536 1.25575 4.15977 1.47281 4.30233 1.83032C4.79379 3.06901 5.39516 4.24752 6.15 5.33989C6.35102 5.63072 6.556 5.92155 6.84789 6.12625C7.1708 6.3529 7.41666 6.27778 7.56857 5.90906C7.66497 5.67526 7.70717 5.42344 7.7289 5.17304C7.80086 4.31157 7.81035 3.45157 7.68412 2.59312C7.60663 2.05736 7.31222 1.71053 6.79068 1.60914C6.52454 1.55746 6.56416 1.45594 6.69303 1.30023C6.91684 1.03167 7.12734 0.864502 7.54697 0.864502H10.6939C11.1893 0.964727 11.2993 1.19286 11.3672 1.70383L11.3699 5.28691C11.3645 5.48473 11.4663 6.07172 11.8139 6.20265C12.0921 6.29586 12.2754 6.06773 12.4423 5.88692C13.1958 5.06722 13.7336 4.0985 14.214 3.09541C14.4272 2.65434 14.6105 2.19627 14.7881 1.7386C14.9198 1.39897 15.1263 1.23187 15.4995 1.23927L18.5283 1.24204C18.6181 1.24204 18.7089 1.24339 18.7959 1.25865C19.3063 1.3478 19.4461 1.57284 19.2885 2.08369C19.0401 2.88517 18.5569 3.55308 18.0844 4.22409C17.5793 4.94047 17.0391 5.63233 16.5382 6.35296C16.078 7.01103 16.1146 7.34273 16.6862 7.91428Z" fill="white"/>
</svg>
